<svg width="72" height="18" viewBox="0 0 72 18" fill="none" xmlns="http://www.w3.org/2000/svg">
<path d="M13.1254 0V2.78202H8.16558V17.2984H4.95977V2.78202H0V0H13.1254Z" fill="white"/>
<path d="M10.688 10.9477C10.688 6.68946 12.7847 4.56036 16.978 4.56036C21.1713 4.56036 23.2679 6.68946 23.2679 10.9477C23.2679 15.2058 21.1713 17.3228 16.978 17.3228C12.7847 17.3228 10.7043 15.1977 10.688 10.9477ZM16.978 14.8794C19.0341 14.8794 20.0621 13.5533 20.0621 10.899C20.0621 8.24471 19.0341 7.01592 16.978 7.01592C14.9219 7.01592 13.8939 8.3096 13.8939 10.899C13.8939 13.4884 14.9219 14.8794 16.978 14.8794Z" fill="white"/>
<path d="M25.6889 17.2983V4.59675H28.1688L28.5683 6.21689C29.6815 5.13612 30.8596 4.59675 32.1005 4.59675V7.18613C30.9062 7.18613 29.8376 7.68292 28.8947 8.67447V17.3003H25.6889V17.2983Z" fill="white"/>
<path d="M33.4329 13.3423C33.4329 10.8178 35.2721 9.55652 38.9503 9.55652C39.8121 9.55652 40.6759 9.63763 41.5397 9.79782V8.84277C41.5397 7.70523 40.7205 7.13747 39.0842 7.13747C37.6972 7.13747 36.1562 7.33821 34.463 7.74172V5.20101C36.1562 4.79749 37.6972 4.59675 39.0842 4.59675C42.8598 4.59675 44.7455 5.99181 44.7455 8.78194V17.2983H42.8821L41.7445 16.1608C40.6394 16.9191 39.4228 17.2983 38.0906 17.2983C34.9862 17.2983 33.4329 15.9803 33.4329 13.3423ZM38.9503 11.7343C37.4093 11.7343 36.6387 12.2595 36.6387 13.3078C36.6387 14.4372 37.2836 15.0009 38.5752 15.0009C39.6398 15.0009 40.6273 14.6704 41.5397 14.0094V11.9776C40.7327 11.8154 39.8709 11.7363 38.9503 11.7363V11.7343Z" fill="white"/>
<path d="M47.274 17.2984V0H50.4798V5.58837C51.7937 4.92734 53.1787 4.59682 54.6285 4.59682C57.8708 4.59682 59.4909 5.81952 59.4909 8.26291C59.4909 10.0372 58.3615 11.4241 56.1047 12.4238L60.0485 17.2984H56.129L52.8137 12.7624V11.2741C55.1293 10.7813 56.2851 9.97633 56.2851 8.85501C56.2851 7.73368 55.5186 7.13754 53.9857 7.13754C52.913 7.13754 51.743 7.47617 50.4778 8.15342V17.2984H47.272H47.274Z" fill="white"/>
<path d="M60.6872 13.3423C60.6872 10.8178 62.5263 9.55652 66.2046 9.55652C67.0664 9.55652 67.9302 9.63763 68.794 9.79782V8.84277C68.794 7.70523 67.9748 7.13747 66.3384 7.13747C64.9515 7.13747 63.4104 7.33821 61.7173 7.74172V5.20101C63.4104 4.79749 64.9515 4.59675 66.3384 4.59675C70.114 4.59675 71.9998 5.99181 71.9998 8.78194V17.2983H70.1363L68.9988 16.1608C67.8937 16.9191 66.6771 17.2983 65.3448 17.2983C62.2404 17.2983 60.6872 15.9803 60.6872 13.3423ZM66.2046 11.7343C64.6635 11.7343 63.893 12.2595 63.893 13.3078C63.893 14.4372 64.5378 15.0009 65.8295 15.0009C66.894 15.0009 67.8815 14.6704 68.794 14.0094V11.9776C67.987 11.8154 67.1252 11.7363 66.2046 11.7363V11.7343Z" fill="white"/>
</svg>
