<svg width="22" height="21" viewBox="0 0 22 21" fill="none" xmlns="http://www.w3.org/2000/svg">
<path d="M8.93 14.624C8.66839 13.9791 8.19067 13.4452 7.57867 13.1137C6.96667 12.7823 6.25847 12.6739 5.57537 12.8072C4.89227 12.9405 4.27677 13.3072 3.8343 13.8444C3.39183 14.3817 3.14992 15.056 3.15 15.752C3.15 16.0601 3.08672 16.365 2.96408 16.6476C2.84144 16.9303 2.66206 17.1847 2.43704 17.3952C2.21203 17.6057 1.94619 17.7677 1.65599 17.8712C1.36579 17.9747 1.05743 18.0176 0.75 17.997C1.24445 18.856 2.00863 19.5277 2.92392 19.9078C3.83921 20.288 4.85441 20.3553 5.8119 20.0994C6.76939 19.8435 7.61562 19.2787 8.21921 18.4926C8.82281 17.7065 9.15 16.7431 9.15 15.752C9.15 15.353 9.072 14.972 8.93 14.624ZM8.93 14.624C10.119 14.2189 11.2562 13.6752 12.318 13.004M7.275 12.979C7.68021 11.7875 8.22464 10.6479 8.897 9.58403M12.317 13.004C14.2133 11.8059 15.8365 10.2223 17.081 8.35603L20.957 2.54203C21.1055 2.32059 21.1725 2.05447 21.1466 1.78912C21.1207 1.52377 21.0034 1.27565 20.8149 1.08712C20.6264 0.898598 20.3783 0.781368 20.1129 0.755452C19.8476 0.729537 19.5814 0.796543 19.36 0.945027L13.546 4.82203C11.6795 6.06617 10.0956 7.68896 8.897 9.58503C10.4189 10.2655 11.6365 11.4831 12.317 13.005" stroke="#FF8140" stroke-width="1.5" stroke-linecap="round" stroke-linejoin="round"/>
</svg>
