<svg width="21" height="19" viewBox="0 0 21 19" fill="none" xmlns="http://www.w3.org/2000/svg">
<path d="M15.5578 12.521C16.0256 12.2015 16.5742 12.0211 17.1403 12.0004C17.7064 11.9798 18.2668 12.1199 18.7566 12.4044C19.2464 12.689 19.6456 13.1064 19.9081 13.6084C20.1706 14.1104 20.2856 14.6764 20.2398 15.241C19.0399 15.6603 17.7655 15.8235 16.4988 15.72C16.4949 14.5866 16.1685 13.4768 15.5578 12.522C15.0157 11.6718 14.2679 10.972 13.3836 10.4875C12.4993 10.003 11.5071 9.74932 10.4988 9.75C9.4906 9.74948 8.49859 10.0032 7.61449 10.4877C6.7304 10.9723 5.98277 11.6719 5.44076 12.522M16.4978 15.719L16.4988 15.75C16.4988 15.975 16.4868 16.197 16.4618 16.416C14.6471 17.4571 12.5909 18.0033 10.4988 18C8.32876 18 6.29176 17.424 4.53576 16.416C4.51006 16.1846 4.4977 15.9519 4.49876 15.719M4.49876 15.719C3.23239 15.8263 1.95867 15.6637 0.759764 15.242C0.714115 14.6776 0.829159 14.1117 1.09159 13.6099C1.35403 13.1081 1.75313 12.6908 2.24277 12.4063C2.7324 12.1218 3.29256 11.9817 3.85848 12.0021C4.42441 12.0226 4.97297 12.2028 5.44076 12.522M4.49876 15.719C4.50236 14.5857 4.83039 13.4769 5.44076 12.522M13.4988 3.75C13.4988 4.54565 13.1827 5.30871 12.6201 5.87132C12.0575 6.43393 11.2944 6.75 10.4988 6.75C9.70311 6.75 8.94005 6.43393 8.37744 5.87132C7.81483 5.30871 7.49876 4.54565 7.49876 3.75C7.49876 2.95435 7.81483 2.19129 8.37744 1.62868C8.94005 1.06607 9.70311 0.75 10.4988 0.75C11.2944 0.75 12.0575 1.06607 12.6201 1.62868C13.1827 2.19129 13.4988 2.95435 13.4988 3.75ZM19.4988 6.75C19.4988 7.04547 19.4406 7.33806 19.3275 7.61104C19.2144 7.88402 19.0487 8.13206 18.8398 8.34099C18.6308 8.54992 18.3828 8.71566 18.1098 8.82873C17.8368 8.9418 17.5442 9 17.2488 9C16.9533 9 16.6607 8.9418 16.3877 8.82873C16.1147 8.71566 15.8667 8.54992 15.6578 8.34099C15.4488 8.13206 15.2831 7.88402 15.17 7.61104C15.057 7.33806 14.9988 7.04547 14.9988 6.75C14.9988 6.15326 15.2358 5.58097 15.6578 5.15901C16.0797 4.73705 16.652 4.5 17.2488 4.5C17.8455 4.5 18.4178 4.73705 18.8398 5.15901C19.2617 5.58097 19.4988 6.15326 19.4988 6.75ZM5.99876 6.75C5.99876 7.04547 5.94057 7.33806 5.82749 7.61104C5.71442 7.88402 5.54869 8.13206 5.33975 8.34099C5.13082 8.54992 4.88278 8.71566 4.6098 8.82873C4.33682 8.9418 4.04424 9 3.74876 9C3.45329 9 3.16071 8.9418 2.88773 8.82873C2.61474 8.71566 2.36671 8.54992 2.15777 8.34099C1.94884 8.13206 1.78311 7.88402 1.67004 7.61104C1.55696 7.33806 1.49876 7.04547 1.49876 6.75C1.49876 6.15326 1.73582 5.58097 2.15777 5.15901C2.57973 4.73705 3.15203 4.5 3.74876 4.5C4.3455 4.5 4.9178 4.73705 5.33975 5.15901C5.76171 5.58097 5.99876 6.15326 5.99876 6.75Z" stroke="#BD73FF" stroke-width="1.5" stroke-linecap="round" stroke-linejoin="round"/>
</svg>
