<svg width="18" height="18" viewBox="0 0 18 18" fill="none" xmlns="http://www.w3.org/2000/svg">
<path d="M13.5 0.75V13.5L9 11.25L4.5 13.5V0.75M13.5 0.75H15C15.5967 0.75 16.169 0.987053 16.591 1.40901C17.0129 1.83097 17.25 2.40326 17.25 3V15C17.25 15.5967 17.0129 16.169 16.591 16.591C16.169 17.0129 15.5967 17.25 15 17.25H3C2.40326 17.25 1.83097 17.0129 1.40901 16.591C0.987053 16.169 0.75 15.5967 0.75 15V3C0.75 2.40326 0.987053 1.83097 1.40901 1.40901C1.83097 0.987053 2.40326 0.75 3 0.75H4.5M13.5 0.75H4.5" stroke="#8CFFF9" stroke-width="1.5" stroke-linecap="round" stroke-linejoin="round"/>
</svg>
