<svg width="16" height="16" viewBox="0 0 16 16" fill="none" xmlns="http://www.w3.org/2000/svg">
<path fill-rule="evenodd" clip-rule="evenodd" d="M8 16C10.1217 16 12.1566 15.1571 13.6569 13.6569C15.1571 12.1566 16 10.1217 16 8C16 5.87827 15.1571 3.84344 13.6569 2.34315C12.1566 0.842855 10.1217 0 8 0C5.87827 0 3.84344 0.842855 2.34315 2.34315C0.842855 3.84344 0 5.87827 0 8C0 10.1217 0.842855 12.1566 2.34315 13.6569C3.84344 15.1571 5.87827 16 8 16ZM8.75 4.75C8.75 4.55109 8.67098 4.36032 8.53033 4.21967C8.38968 4.07902 8.19891 4 8 4C7.80109 4 7.61032 4.07902 7.46967 4.21967C7.32902 4.36032 7.25 4.55109 7.25 4.75V7.25H4.75C4.55109 7.25 4.36032 7.32902 4.21967 7.46967C4.07902 7.61032 4 7.80109 4 8C4 8.19891 4.07902 8.38968 4.21967 8.53033C4.36032 8.67098 4.55109 8.75 4.75 8.75H7.25V11.25C7.25 11.4489 7.32902 11.6397 7.46967 11.7803C7.61032 11.921 7.80109 12 8 12C8.19891 12 8.38968 11.921 8.53033 11.7803C8.67098 11.6397 8.75 11.4489 8.75 11.25V8.75H11.25C11.4489 8.75 11.6397 8.67098 11.7803 8.53033C11.921 8.38968 12 8.19891 12 8C12 7.80109 11.921 7.61032 11.7803 7.46967C11.6397 7.32902 11.4489 7.25 11.25 7.25H8.75V4.75Z" fill="white"/>
</svg>
