<svg width="9" height="5" viewBox="0 0 9 5" fill="none" xmlns="http://www.w3.org/2000/svg">
<path fill-rule="evenodd" clip-rule="evenodd" d="M0.230127 0.250448C0.377668 0.10309 0.577668 0.0203206 0.786193 0.0203206C0.994718 0.0203206 1.19472 0.10309 1.34226 0.250448L4.19603 3.10422L7.0498 0.250448C7.12184 0.173137 7.20871 0.111128 7.30523 0.0681201C7.40176 0.0251122 7.50596 0.00198663 7.61161 0.000122463C7.71727 -0.0017417 7.82222 0.0176937 7.9202 0.0572699C8.01818 0.096846 8.10718 0.155752 8.1819 0.230473C8.25663 0.305194 8.31553 0.3942 8.35511 0.492181C8.39468 0.590162 8.41412 0.695111 8.41226 0.800767C8.41039 0.906422 8.38727 1.01062 8.34426 1.10714C8.30125 1.20367 8.23924 1.29054 8.16193 1.36258L4.75209 4.77241C4.60455 4.91977 4.40455 5.00254 4.19603 5.00254C3.9875 5.00254 3.7875 4.91977 3.63996 4.77241L0.230127 1.36258C0.0827692 1.21504 0 1.01504 0 0.806513C0 0.597988 0.0827692 0.397989 0.230127 0.250448Z" fill="white"/>
</svg>
