<svg width="20" height="20" viewBox="0 0 20 20" fill="none" xmlns="http://www.w3.org/2000/svg">
<path d="M14.2059 16.4286H5.63439M14.2059 16.4286C14.9636 16.4286 15.6904 16.7296 16.2262 17.2654C16.762 17.8013 17.063 18.528 17.063 19.2858H2.77723C2.77723 18.528 3.07825 17.8013 3.61408 17.2654C4.1499 16.7296 4.87663 16.4286 5.63439 16.4286M14.2059 16.4286V13.2143C14.2059 12.6229 13.7268 12.1429 13.1344 12.1429H12.3049M5.63439 16.4286V13.2143C5.63439 12.6229 6.11439 12.1429 6.70582 12.1429H7.5363M12.3049 12.1429H7.5363M12.3049 12.1429C11.77 11.219 11.4503 10.1864 11.3697 9.1219M7.5363 12.1429C8.0709 11.2189 8.39025 10.1863 8.47059 9.1219M11.3697 9.1219C12.3296 8.90036 13.2246 8.46038 13.9868 7.83618M11.3697 9.1219C10.4158 9.3419 9.42443 9.3419 8.47059 9.1219M8.47059 9.1219C7.51097 8.90022 6.61538 8.46025 5.85344 7.83618M3.49152 2.60568C2.55628 2.74187 1.63056 2.90758 0.714367 3.10092C0.926746 4.34739 1.54635 5.48829 2.47623 6.3451C3.4061 7.20191 4.59379 7.72629 5.85344 7.83618M3.49152 2.60568V2.85711C3.49152 4.86474 4.41153 6.65713 5.85344 7.83618M3.49152 2.60568V1.16281C5.59249 0.866622 7.73916 0.714241 9.92013 0.714241C12.102 0.714241 14.2487 0.866622 16.3487 1.16186V2.60568M16.3487 2.60568V2.85711C16.3487 4.86474 15.4287 6.65713 13.9868 7.83618M16.3487 2.60568C17.2795 2.74111 18.2057 2.90628 19.1259 3.10092C18.9135 4.34724 18.2941 5.48803 17.3644 6.34483C16.4347 7.20162 15.2463 7.72609 13.9868 7.83618" stroke="#F4B83C" stroke-width="1.38462" stroke-linecap="round" stroke-linejoin="round"/>
</svg>
