<svg width="22" height="17" viewBox="0 0 22 17" fill="none" xmlns="http://www.w3.org/2000/svg">
<path d="M18.6361 1.40378C17.1907 0.73854 15.6648 0.26659 14.0973 0C13.8828 0.38545 13.6888 0.78203 13.5159 1.18808C11.8463 0.93516 10.1484 0.93516 8.47881 1.18808C8.30587 0.78208 8.1118 0.3855 7.8974 0C6.32897 0.26884 4.80205 0.74191 3.35518 1.40726C0.482762 5.67949 -0.295908 9.84558 0.0934218 13.9526C1.77558 15.202 3.6584 16.1522 5.66003 16.7619C6.11074 16.1525 6.50956 15.5061 6.85226 14.8293C6.20135 14.5849 5.57311 14.2834 4.9748 13.9283C5.13227 13.8135 5.28627 13.6952 5.43508 13.5804C7.17601 14.4034 9.0761 14.8301 11 14.8301C12.9238 14.8301 14.8239 14.4034 16.5648 13.5804C16.7154 13.7039 16.8694 13.8222 17.0251 13.9283C16.4257 14.284 15.7963 14.5861 15.1442 14.8311C15.4865 15.5075 15.8853 16.1534 16.3364 16.7619C18.3398 16.1547 20.224 15.2049 21.9065 13.9544C22.3633 9.19158 21.1261 5.06371 18.6361 1.40378ZM7.34541 11.4269C6.26047 11.4269 5.36414 10.4371 5.36414 9.21938C5.36414 8.00178 6.22932 7.00328 7.34195 7.00328C8.45458 7.00328 9.344 8.00178 9.325 9.21938C9.3059 10.4371 8.45112 11.4269 7.34541 11.4269ZM14.6545 11.4269C13.5678 11.4269 12.675 10.4371 12.675 9.21938C12.675 8.00178 13.5401 7.00328 14.6545 7.00328C15.7689 7.00328 16.6514 8.00178 16.6323 9.21938C16.6133 10.4371 15.7602 11.4269 14.6545 11.4269Z" fill="#CFD9E9"/>
</svg>
