<svg width="72" height="18" viewBox="0 0 72 18" fill="none" xmlns="http://www.w3.org/2000/svg">
<path d="M13.1254 0V2.78203H8.16561V17.2984H4.95979V2.78203H0V0H13.1254Z" fill="white"/>
<path d="M10.6881 10.9477C10.6881 6.68948 12.7847 4.56038 16.9781 4.56038C21.1714 4.56038 23.268 6.68948 23.268 10.9477C23.268 15.2059 21.1714 17.3228 16.9781 17.3228C12.7847 17.3228 10.7043 15.1978 10.6881 10.9477ZM16.9781 14.8794C19.0342 14.8794 20.0622 13.5533 20.0622 10.899C20.0622 8.24474 19.0342 7.01594 16.9781 7.01594C14.922 7.01594 13.8939 8.30963 13.8939 10.899C13.8939 13.4884 14.922 14.8794 16.9781 14.8794Z" fill="white"/>
<path d="M25.689 17.2985V4.59689H28.1689L28.5684 6.21703C29.6816 5.13626 30.8597 4.59689 32.1007 4.59689V7.18628C30.9063 7.18628 29.8377 7.68307 28.8948 8.67462V17.3005H25.689V17.2985Z" fill="white"/>
<path d="M33.4331 13.3424C33.4331 10.8179 35.2722 9.55668 38.9505 9.55668C39.8123 9.55668 40.6761 9.63779 41.5399 9.79798V8.84293C41.5399 7.70538 40.7207 7.13762 39.0843 7.13762C37.6973 7.13762 36.1563 7.33836 34.4631 7.74187V5.20115C36.1563 4.79763 37.6973 4.59689 39.0843 4.59689C42.8599 4.59689 44.7457 5.99196 44.7457 8.78209V17.2985H42.8822L41.7447 16.161C40.6396 16.9193 39.4229 17.2985 38.0907 17.2985C34.9863 17.2985 33.4331 15.9805 33.4331 13.3424ZM38.9505 11.7344C37.4094 11.7344 36.6389 12.2596 36.6389 13.308C36.6389 14.4374 37.2837 15.0011 38.5753 15.0011C39.6399 15.0011 40.6274 14.6706 41.5399 14.0095V11.9778C40.7328 11.8156 39.8711 11.7365 38.9505 11.7365V11.7344Z" fill="white"/>
<path d="M47.2741 17.2984V0H50.48V5.58839C51.7939 4.92735 53.1789 4.59683 54.6287 4.59683C57.871 4.59683 59.4911 5.81954 59.4911 8.26294C59.4911 10.0372 58.3617 11.4242 56.1048 12.4238L60.0488 17.2984H56.1292L52.8139 12.7624V11.2741C55.1295 10.7814 56.2853 9.97636 56.2853 8.85504C56.2853 7.73371 55.5188 7.13756 53.9859 7.13756C52.9132 7.13756 51.7432 7.47619 50.4779 8.15345V17.2984H47.2721H47.2741Z" fill="white"/>
<path d="M60.6874 13.3424C60.6874 10.8179 62.5265 9.55668 66.2048 9.55668C67.0666 9.55668 67.9304 9.63779 68.7942 9.79798V8.84293C68.7942 7.70538 67.975 7.13762 66.3387 7.13762C64.9517 7.13762 63.4106 7.33836 61.7175 7.74187V5.20115C63.4106 4.79763 64.9517 4.59689 66.3387 4.59689C70.1143 4.59689 72 5.99196 72 8.78209V17.2985H70.1366L68.999 16.161C67.8939 16.9193 66.6773 17.2985 65.3451 17.2985C62.2406 17.2985 60.6874 15.9805 60.6874 13.3424ZM66.2048 11.7344C64.6638 11.7344 63.8932 12.2596 63.8932 13.308C63.8932 14.4374 64.538 15.0011 65.8297 15.0011C66.8943 15.0011 67.8817 14.6706 68.7942 14.0095V11.9778C67.9872 11.8156 67.1254 11.7365 66.2048 11.7365V11.7344Z" fill="white"/>
</svg>
