<svg width="13" height="13" viewBox="0 0 13 13" fill="none" xmlns="http://www.w3.org/2000/svg">
<path fill-rule="evenodd" clip-rule="evenodd" d="M6.50113 2.91587e-06C6.65018 0.000102265 6.79588 0.0443205 6.91984 0.127085C7.04381 0.20985 7.14051 0.327457 7.19774 0.465086L8.61715 3.88073L12.3056 4.17568C12.4542 4.18764 12.596 4.24333 12.713 4.33573C12.83 4.42813 12.917 4.55311 12.9631 4.69491C13.0092 4.83671 13.0123 4.98898 12.9719 5.13252C12.9316 5.27605 12.8497 5.40444 12.7365 5.50147L9.92684 7.90742L10.7855 11.5063C10.82 11.6513 10.8108 11.8032 10.7591 11.943C10.7074 12.0828 10.6155 12.2042 10.4949 12.2918C10.3743 12.3794 10.2305 12.4294 10.0816 12.4354C9.93269 12.4415 9.78532 12.4033 9.65805 12.3257L6.49911 10.3989L3.34319 12.3267C3.21593 12.4043 3.06855 12.4425 2.91963 12.4364C2.77071 12.4304 2.6269 12.3804 2.50634 12.2928C2.38578 12.2052 2.29384 12.0838 2.24212 11.944C2.19041 11.8042 2.18122 11.6523 2.21572 11.5073L3.0734 7.90944L0.264783 5.50349C0.151279 5.40659 0.0690405 5.27822 0.0284546 5.1346C-0.0121313 4.99098 -0.00924345 4.83856 0.0367535 4.69658C0.0827505 4.55461 0.169793 4.42945 0.286886 4.33691C0.403979 4.24438 0.545869 4.18863 0.694633 4.17669L4.38208 3.88174L5.80149 0.466093C5.85877 0.3278 5.95586 0.209653 6.08043 0.126664C6.20501 0.0436743 6.35144 -0.000413001 6.50113 2.91587e-06Z" fill="#F4B83C"/>
</svg>
