<svg width="19" height="19" viewBox="0 0 19 19" fill="none" xmlns="http://www.w3.org/2000/svg">
<path d="M9.5 1.71173C12.0365 1.71173 12.337 1.72123 13.3389 1.767C13.9411 1.77427 14.5377 1.88499 15.1024 2.09432C15.5151 2.24662 15.8884 2.4895 16.1949 2.80509C16.5105 3.11156 16.7534 3.48488 16.9057 3.89759C17.115 4.46235 17.2257 5.05888 17.233 5.66114C17.2788 6.66295 17.2883 6.9635 17.2883 9.5C17.2883 12.0365 17.2788 12.337 17.233 13.3389C17.2257 13.9411 17.115 14.5377 16.9057 15.1024C16.7476 15.5122 16.5055 15.8844 16.1949 16.1949C15.8844 16.5055 15.5122 16.7476 15.1024 16.9057C14.5377 17.115 13.9411 17.2257 13.3389 17.233C12.337 17.2788 12.0365 17.2883 9.5 17.2883C6.9635 17.2883 6.66295 17.2788 5.66114 17.233C5.05859 17.2258 4.46176 17.1151 3.89673 16.9057C3.48433 16.7533 3.11132 16.5104 2.80509 16.1949C2.4895 15.8884 2.24662 15.5151 2.09432 15.1024C1.88499 14.5377 1.77427 13.9411 1.767 13.3389C1.72123 12.337 1.71173 12.0365 1.71173 9.5C1.71173 6.9635 1.72123 6.66295 1.767 5.66114C1.77427 5.05888 1.88499 4.46235 2.09432 3.89759C2.24662 3.48488 2.4895 3.11156 2.80509 2.80509C3.11156 2.4895 3.48488 2.24662 3.89759 2.09432C4.46235 1.88499 5.05888 1.77427 5.66114 1.767C6.66295 1.72123 6.9635 1.71173 9.5 1.71173ZM9.5 0C6.92032 0 6.59645 0.0112299 5.58341 0.0569999C4.79535 0.0727199 4.01567 0.22194 3.2775 0.49832C2.6433 0.7371 2.06886 1.11141 1.59427 1.59514C1.11096 2.06956 0.73695 2.64369 0.49832 3.2775C0.22224 4.01572 0.0733099 4.7954 0.0578599 5.58341C0.0103599 6.59645 0 6.92032 0 9.5C0 12.0797 0.0112299 12.4035 0.0569999 13.4166C0.0727199 14.2046 0.22194 14.9843 0.49832 15.7225C0.7371 16.3567 1.11141 16.9311 1.59514 17.4057C2.06956 17.889 2.64369 18.263 3.2775 18.5017C4.01572 18.7778 4.7954 18.9267 5.58341 18.9421C6.59645 18.9896 6.92032 19 9.5 19C12.0797 19 12.4035 18.9888 13.4166 18.943C14.2046 18.9273 14.9843 18.7781 15.7225 18.5017C16.3538 18.2576 16.9271 17.8843 17.4057 17.4057C17.8843 16.9271 18.2576 16.3538 18.5017 15.7225C18.7778 14.9843 18.9267 14.2046 18.9421 13.4166C18.9896 12.4035 19 12.0797 19 9.5C19 6.92032 18.9888 6.59645 18.943 5.58341C18.9273 4.79535 18.7781 4.01567 18.5017 3.2775C18.2629 2.6433 17.8886 2.06886 17.4049 1.59427C16.9304 1.11096 16.3563 0.73695 15.7225 0.49832C14.9843 0.22224 14.2046 0.0733099 13.4166 0.0578599C12.4035 0.0103599 12.0797 0 9.5 0ZM9.5 4.62132C8.5351 4.62132 7.5918 4.90745 6.78955 5.44352C5.98725 5.9796 5.36194 6.74155 4.99269 7.633C4.62343 8.5245 4.52682 9.5054 4.71506 10.4518C4.90331 11.3982 5.36796 12.2675 6.05025 12.9497C6.73255 13.632 7.6018 14.0967 8.5482 14.2849C9.4946 14.4732 10.4755 14.3766 11.367 14.0073C12.2585 13.6381 13.0204 13.0127 13.5565 12.2105C14.0926 11.4082 14.3787 10.4649 14.3787 9.5C14.3787 8.2061 13.8647 6.96518 12.9497 6.05025C12.0348 5.13532 10.7939 4.62132 9.5 4.62132ZM9.5 12.667C8.8736 12.667 8.2613 12.4812 7.7405 12.1332C7.21973 11.7852 6.81382 11.2906 6.57412 10.7119C6.33442 10.1333 6.2717 9.4965 6.3939 8.8822C6.5161 8.2678 6.81772 7.7035 7.26063 7.26063C7.7035 6.81772 8.2678 6.5161 8.8822 6.3939C9.4965 6.2717 10.1333 6.33442 10.7119 6.57412C11.2906 6.81382 11.7852 7.21973 12.1332 7.7405C12.4812 8.2613 12.667 8.8736 12.667 9.5C12.667 10.3399 12.3333 11.1455 11.7394 11.7394C11.1455 12.3333 10.3399 12.667 9.5 12.667ZM14.5713 3.28873C14.3458 3.28873 14.1254 3.35559 13.9379 3.48085C13.7505 3.60612 13.6043 3.78416 13.5181 3.99247C13.4318 4.20078 13.4092 4.42999 13.4532 4.65113C13.4972 4.87227 13.6057 5.0754 13.7652 5.23483C13.9246 5.39426 14.1277 5.50284 14.3489 5.54682C14.57 5.59081 14.7992 5.56823 15.0075 5.48195C15.2158 5.39567 15.3939 5.24955 15.5191 5.06208C15.6444 4.87461 15.7113 4.6542 15.7113 4.42873C15.7113 4.12638 15.5912 3.83642 15.3774 3.62263C15.1636 3.40883 14.8736 3.28873 14.5713 3.28873Z" fill="#CFD9E9"/>
</svg>
