<svg width="24" height="21" viewBox="0 0 24 21" fill="none" xmlns="http://www.w3.org/2000/svg">
<path fill-rule="evenodd" clip-rule="evenodd" d="M19.9604 2.48098C19.9604 3.85119 18.8496 4.96196 17.4794 4.96196C16.306 4.96196 15.3228 4.14734 15.0647 3.05278C13.6253 3.25048 12.5132 4.48823 12.5132 5.98103L12.513 5.99038C14.732 6.07274 16.7607 6.69779 18.3679 7.69226C18.9581 7.23899 19.6969 6.96954 20.4986 6.96954C22.4324 6.96954 24 8.53718 24 10.471C24 11.8655 23.1847 13.0697 22.0047 13.6328C21.895 17.7019 17.4625 20.9752 12.0107 20.9752C6.56347 20.9752 2.13389 17.7074 2.01697 13.643C0.825309 13.0844 0 11.8741 0 10.471C0 8.53718 1.56764 6.96954 3.50142 6.96954C4.30745 6.96954 5.04987 7.2419 5.64167 7.69961C7.23364 6.71151 9.2407 6.08636 11.4375 5.9932L11.4372 5.98241C11.4372 3.90089 13.0236 2.1822 15.0507 1.97221C15.2854 0.84604 16.2836 0 17.4794 0C18.8496 0 19.9604 1.11077 19.9604 2.48098ZM7.17128 14.4805C8.15284 14.4805 8.99557 14.0223 9.05388 12.7617V12.7631C9.11219 11.5025 8.36387 10.4501 7.38231 10.4501C6.40075 10.4501 5.55802 11.2748 5.49971 12.5354C5.4414 13.796 6.18972 14.4805 7.17128 14.4805ZM16.8446 14.4805C15.863 14.4805 15.0203 14.0223 14.962 12.7617V12.7631C14.9037 11.5025 15.652 10.4501 16.6335 10.4501C17.6151 10.4501 18.4578 11.2748 18.5161 12.5354C18.5744 13.796 17.8261 14.4805 16.8446 14.4805ZM12.0068 15.4607C10.7906 15.4607 9.6244 15.5204 8.54705 15.6301C8.36239 15.6481 8.24577 15.8397 8.31797 16.0105C8.9219 17.453 10.3463 18.4665 12.0068 18.4665C13.6673 18.4665 15.0931 17.453 15.6957 16.0105C15.7678 15.8397 15.6498 15.6481 15.4666 15.6301C14.3878 15.5204 13.223 15.4607 12.0068 15.4607Z" fill="#CFD9E9"/>
</svg>
