<svg width="20" height="19" viewBox="0 0 20 19" fill="none" xmlns="http://www.w3.org/2000/svg">
<path d="M9.40188 1.10063C9.44424 0.997295 9.51639 0.908894 9.60914 0.846676C9.70189 0.784458 9.81105 0.751236 9.92273 0.751236C10.0344 0.751236 10.1436 0.784458 10.2363 0.846676C10.3291 0.908894 10.4012 0.997295 10.4436 1.10063L12.5721 6.22005C12.6119 6.31585 12.6774 6.39879 12.7614 6.45976C12.8453 6.52073 12.9445 6.55736 13.0479 6.56562L18.575 7.00835C19.0748 7.04842 19.2771 7.67244 18.8965 7.99798L14.6856 11.6059C14.6069 11.6732 14.5483 11.7609 14.5161 11.8593C14.484 11.9577 14.4795 12.0631 14.5033 12.1638L15.7904 17.5577C15.8163 17.6659 15.8095 17.7794 15.7709 17.8837C15.7323 17.9881 15.6637 18.0787 15.5737 18.1441C15.4836 18.2095 15.3762 18.2467 15.2651 18.2511C15.1539 18.2555 15.0439 18.2268 14.949 18.1687L10.2162 15.279C10.1278 15.225 10.0263 15.1964 9.92273 15.1964C9.81918 15.1964 9.71762 15.225 9.62925 15.279L4.89647 18.1697C4.80157 18.2278 4.69158 18.2565 4.5804 18.2521C4.46923 18.2477 4.36184 18.2105 4.27181 18.1451C4.18178 18.0797 4.11314 17.9891 4.07457 17.8847C4.03599 17.7804 4.02921 17.6669 4.05508 17.5587L5.3422 12.1638C5.36607 12.0631 5.36168 11.9577 5.32952 11.8592C5.29736 11.7608 5.23866 11.6731 5.1599 11.6059L0.948975 7.99798C0.864178 7.92569 0.802741 7.82987 0.772444 7.72264C0.742147 7.61542 0.744354 7.50161 0.778784 7.39564C0.813214 7.28967 0.878319 7.1963 0.965854 7.12735C1.05339 7.05841 1.15941 7.01699 1.2705 7.00835L6.79759 6.56562C6.90101 6.55736 7.00015 6.52073 7.08409 6.45976C7.16804 6.39879 7.23353 6.31585 7.27338 6.22005L9.40188 1.10063Z" stroke="#F4B83C" stroke-width="1.5" stroke-linecap="round" stroke-linejoin="round"/>
</svg>
