<svg width="13" height="13" viewBox="0 0 13 13" fill="none" xmlns="http://www.w3.org/2000/svg">
<path fill-rule="evenodd" clip-rule="evenodd" d="M6.501 2.91581e-06C6.65006 0.000102263 6.79575 0.0443196 6.91971 0.127083C7.04368 0.209846 7.14037 0.327451 7.19761 0.465077L8.61699 3.88066L12.3054 4.17561C12.454 4.18756 12.5957 4.24325 12.7127 4.33565C12.8298 4.42805 12.9168 4.55303 12.9629 4.69482C13.009 4.83662 13.012 4.98888 12.9717 5.13242C12.9313 5.27595 12.8494 5.40433 12.7362 5.50137L9.92665 7.90727L10.7853 11.5061C10.8198 11.6511 10.8106 11.803 10.7589 11.9428C10.7072 12.0826 10.6153 12.2039 10.4947 12.2915C10.3741 12.3792 10.2303 12.4292 10.0814 12.4352C9.93251 12.4412 9.78513 12.4031 9.65787 12.3255L6.49899 10.3987L3.34313 12.3265C3.21587 12.4041 3.06849 12.4422 2.91957 12.4362C2.77066 12.4302 2.62686 12.3802 2.50629 12.2926C2.38573 12.2049 2.2938 12.0836 2.24208 11.9438C2.19037 11.804 2.18118 11.6521 2.21567 11.5071L3.07334 7.90929L0.264778 5.50338C0.151277 5.40648 0.0690392 5.27812 0.0284541 5.1345C-0.0121311 4.99089 -0.00924327 4.83847 0.0367529 4.69649C0.082749 4.55452 0.16979 4.42936 0.28688 4.33683C0.403971 4.2443 0.545859 4.18855 0.69462 4.17661L4.382 3.88166L5.80138 0.466084C5.85866 0.327793 5.95575 0.209649 6.08032 0.126661C6.20489 0.0436734 6.35132 -0.000412993 6.501 2.91581e-06Z" fill="white"/>
</svg>
