<svg width="20" height="18" viewBox="0 0 20 18" fill="none" xmlns="http://www.w3.org/2000/svg">
<path d="M13.787 6.3494H18.779L15.598 3.1664C14.5739 2.14228 13.2983 1.4058 11.8993 1.03101C10.5003 0.656222 9.02726 0.656332 7.62832 1.03133C6.22938 1.40632 4.95381 2.14299 3.92985 3.16727C2.90588 4.19155 2.16961 5.46735 1.79505 6.86641M0.749047 16.6454V11.6534M0.749047 11.6534H5.74105M0.749047 11.6534L3.92905 14.8364C4.95316 15.8605 6.22884 16.597 7.62784 16.9718C9.02683 17.3466 10.4998 17.3465 11.8988 16.9715C13.2977 16.5965 14.5733 15.8598 15.5972 14.8355C16.6212 13.8113 17.3575 12.5355 17.732 11.1364M18.779 1.35741V6.3474" stroke="#57DE89" stroke-width="1.5" stroke-linecap="round" stroke-linejoin="round"/>
</svg>
