<svg width="18" height="20" viewBox="0 0 18 20" fill="none" xmlns="http://www.w3.org/2000/svg">
<path d="M17.434 8.2134C15.6544 8.2134 14.0068 7.64796 12.6613 6.68698V13.6726C12.6613 17.1671 9.82695 20 6.33076 20C5.02627 20 3.81379 19.6058 2.80659 18.9298C1.11424 17.7941 0 15.863 0 13.6726C0 10.1783 2.83436 7.34543 6.33086 7.3455C6.62143 7.34536 6.91165 7.36509 7.19945 7.40441V8.18L7.19935 10.904C6.92225 10.8161 6.62691 10.7684 6.32047 10.7684C4.72104 10.7684 3.42469 12.0643 3.42469 13.6627C3.42469 14.7928 4.07269 15.7714 5.01762 16.2481C5.40942 16.4456 5.85191 16.5569 6.32049 16.5569C7.91665 16.5569 9.21075 15.2663 9.21625 13.6726V0H12.6613V0.44029C12.6734 0.57192 12.6909 0.70305 12.7137 0.83332C12.9528 2.19637 13.7682 3.36094 14.9 4.06685C15.66 4.54103 16.5384 4.79171 17.4342 4.79035L17.434 8.2134Z" fill="#CFD9E9"/>
</svg>
