<svg width="18" height="18" viewBox="0 0 18 18" fill="none" xmlns="http://www.w3.org/2000/svg">
<path d="M16.65 0H1.35C0.99196 0 0.64858 0.14223 0.39541 0.39541C0.14223 0.64858 0 0.99196 0 1.35V16.65C0 17.008 0.14223 17.3514 0.39541 17.6046C0.64858 17.8578 0.99196 18 1.35 18H16.65C17.008 18 17.3514 17.8578 17.6046 17.6046C17.8578 17.3514 18 17.008 18 16.65V1.35C18 0.99196 17.8578 0.64858 17.6046 0.39541C17.3514 0.14223 17.008 0 16.65 0ZM5.4 15.3H2.7V7.2H5.4V15.3ZM4.05 5.625C3.74056 5.61616 3.4406 5.51632 3.18758 5.33797C2.93456 5.15962 2.7397 4.91066 2.62737 4.6222C2.51503 4.33374 2.49019 4.01857 2.55595 3.71607C2.6217 3.41358 2.77515 3.13716 2.9971 2.92138C3.21906 2.70559 3.49968 2.55999 3.80391 2.50278C4.10814 2.44556 4.42248 2.47927 4.70766 2.59969C4.99284 2.7201 5.23622 2.92189 5.40737 3.17983C5.57853 3.43778 5.66987 3.74044 5.67 4.05C5.66289 4.47331 5.4885 4.8766 5.18495 5.17173C4.88139 5.46685 4.47335 5.62982 4.05 5.625ZM15.3 15.3H12.6V11.034C12.6 9.756 12.06 9.297 11.358 9.297C11.1522 9.3107 10.9511 9.3649 10.7663 9.4566C10.5815 9.5482 10.4166 9.6755 10.2811 9.831C10.1457 9.9866 10.0422 10.1674 9.9768 10.363C9.9114 10.5586 9.8853 10.7652 9.9 10.971C9.8955 11.0129 9.8955 11.0551 9.9 11.097V15.3H7.2V7.2H9.81V8.37C10.0733 7.9695 10.435 7.6433 10.8605 7.4227C11.286 7.2021 11.761 7.0944 12.24 7.11C13.635 7.11 15.264 7.884 15.264 10.404L15.3 15.3Z" fill="#CFD9E9"/>
</svg>
